# xmcd
#
# Track frame offsets:
#	150
#	12127
#	30879
#	45217
#	61643
#	72737
#	87277
#	100263
#	115769
#	127640
#	144588
#	161922
#	175768
#	193648
#	207075
#	218897
#	229973
#	243964
#	259489
#
# Disc length: 3994 seconds
#
# Revision: 0
# Processed by: cddbd v1.4PL0 Copyright (c) Steve Scherf et al.
# Submitted via: dBpowerAMP V4.0
#
DISCID=fc0f9813
DTITLE=Bread - Bread
DYEAR=1900
DGENRE=Blues
TTITLE0=I'd Really Love To See You Tonight
TTITLE1=A Horse With No Name
TTITLE2=Diary
TTITLE3=Aubrey
TTITLE4=Baby I'm A Aant You
TTITLE5=I Want To Make It With You
TTITLE6=It Don't Matter To Me
TTITLE7=Summer Breeze
TTITLE8=If A Picture Paints A Thousand Words
TTITLE9=The Guitar Man
TTITLE10=The Air That I Breathe
TTITLE11=I Would Give Anything
TTITLE12=Just When I Needed You Most
TTITLE13=Lost Without Your Love
TTITLE14=Mother Freedom
TTITLE15=Let Your Love Go
TTITLE16=Never Let Her Go
TTITLE17=Take Me Now
TTITLE18=Clouds Suite
EXTD=
EXTT0=
EXTT1=
EXTT2=
EXTT3=
EXTT4=
EXTT5=
EXTT6=
EXTT7=
EXTT8=
EXTT9=
EXTT10=
EXTT11=
EXTT12=
EXTT13=
EXTT14=
EXTT15=
EXTT16=
EXTT17=
EXTT18=
PLAYORDER=
